<svg xmlns="http://www.w3.org/2000/svg" viewBox="0 0 413.33 122.55"><g style="isolation:isolate"><g id="Calque_2" data-name="Calque 2"><path d="M87,31.23h13q12.23,0,19.12,7.24a23.84,23.84,0,0,1,6.9,17,25.21,25.21,0,0,1-7,18.11q-7,7.32-19.13,7.31-1.43,0-5.85-.18t-7.05-.19L76.12,81a1.9,1.9,0,0,1-.3-1.28q0-1.5.3-1.5a11.85,11.85,0,0,0,2.81-.52c1.28-.35,2-.73,2.14-1.13a31.19,31.19,0,0,0,.45-6.6V41.58a26.19,26.19,0,0,0-.45-5.85c-.15-.4-.89-.85-2.21-1.35a9.54,9.54,0,0,0-2.81-.75q-.3,0-.3-1.35c0-.8.07-1.27.22-1.42Q82,31.24,87,31.23Zm5,10.13v29.1c0,3.25.23,5,.68,5.25q1.65,1,8.47,1a10.94,10.94,0,0,0,9.75-5.4q3.45-5.4,3.45-16.12a25.64,25.64,0,0,0-3.63-14,11.35,11.35,0,0,0-10.09-5.74h-.38q-6.37,0-7.27,1.2C92.35,37.53,92,39.11,92,41.36Z" style="fill:#fcefb2"/><path d="M141.3,31.23q3.3,0,11.62-.19t12.61-.18q.06.75,2.17,11.1a2.62,2.62,0,0,1-1.72.37c-.56,0-.9-.17-1-.52a12.79,12.79,0,0,0-4.5-4.88,11,11,0,0,0-6-2h-2.85c-3.15,0-4.77.32-4.87,1a31.93,31.93,0,0,0-.38,5.85V53.28c0,.3,1.08.45,3.23.45h4q4.65,0,5.1-.3a4.06,4.06,0,0,0,.61-2.17,13,13,0,0,1,.45-2.18c0-.35.42-.52,1.12-.52a2.48,2.48,0,0,1,1.65.37V63.11a2.55,2.55,0,0,1-1.57.3q-1,0-1.2-.6c-.21-.7-.38-1.3-.53-1.8s-.28-.88-.38-1.13a4.65,4.65,0,0,0-.33-.67l-.26-.38a1.36,1.36,0,0,0-.3-.18,1.59,1.59,0,0,1-.31-.19q-1-.6-5.85-.6-5.4,0-5.4.67V70.08a17.45,17.45,0,0,0,.6,5.33q.38,1.2,5.1,1.2H154a18,18,0,0,0,8.41-2,10.93,10.93,0,0,0,2.88-2.55,14.24,14.24,0,0,0,2.52-4.2c0-.3.4-.45,1.05-.45a3.56,3.56,0,0,1,2.25.45q-3.69,10.35-4.05,12.9-3.83,0-12.16-.15t-13.5-.15l-11,.45a1.9,1.9,0,0,1-.3-1.28q0-1.5.3-1.5a12,12,0,0,0,2.82-.52c1.27-.35,2-.73,2.13-1.13a31.19,31.19,0,0,0,.45-6.6V41.58a26.19,26.19,0,0,0-.45-5.85c-.15-.4-.88-.85-2.21-1.35a9.47,9.47,0,0,0-2.81-.75q-.3,0-.3-1.35c0-.8.07-1.27.22-1.42Q136.27,31.24,141.3,31.23Z" style="fill:#fcefb2"/><path d="M185.1,31.61q.53,0,11.33-.6a2.44,2.44,0,0,1,.3,1.53c0,.83-.1,1.24-.3,1.24a9.43,9.43,0,0,0-3.12.68c-1.22.45-1.83,1.12-1.83,2a26.34,26.34,0,0,0,1.72,5l10.05,24.75,10.58-24.67a14.13,14.13,0,0,0,1.5-5.1c0-.75-.52-1.38-1.54-1.88a8.62,8.62,0,0,0-3.79-.75c-.15-.05-.22-.45-.22-1.2a5.6,5.6,0,0,1,.15-1.57c.7,0,2,.16,3.86.33s3.44.27,4.69.27,2.77-.09,4.57-.27,3.18-.28,4.13-.33a1.58,1.58,0,0,1,.3,1.12c0,1,0,1.58-.15,1.58a9.15,9.15,0,0,0-2.63.63,10.1,10.1,0,0,0-2.92,1.54q-.6.52-2.85,5.48l-16.2,37.27a5.66,5.66,0,0,1-1.54,2,2.85,2.85,0,0,1-1.69.75,2,2,0,0,1-1.72-1l-15.38-38q-2.25-5.62-2.47-6.15a3.5,3.5,0,0,0-2.44-1.84,11.17,11.17,0,0,0-3-.64c-.2,0-.3-.42-.3-1.27a4,4,0,0,1,.15-1.5c.25,0,1.79.1,4.61.3S183.8,31.61,185.1,31.61Z" style="fill:#fcefb2"/><path d="M240.83,31.23q4.88,0,12.6-.19t11.62-.18q.07.75,2.18,11.1a2.64,2.64,0,0,1-1.73.37c-.55,0-.89-.17-1-.52A12.74,12.74,0,0,0,260,36.93a10.9,10.9,0,0,0-6-2H251.1c-3.15,0-4.77.32-4.87,1a31.93,31.93,0,0,0-.38,5.85V53.28c0,.3,1.08.45,3.23.45h4c3.1,0,4.81-.1,5.11-.3a4.23,4.23,0,0,0,.59-2.17,15.31,15.31,0,0,1,.45-2.18c.05-.35.43-.52,1.13-.52a2.48,2.48,0,0,1,1.65.37V63.11a2.57,2.57,0,0,1-1.58.3q-1,0-1.2-.6c-.2-.7-.37-1.3-.52-1.8s-.28-.88-.37-1.13a6,6,0,0,0-.34-.67,3.1,3.1,0,0,0-.27-.38,1.15,1.15,0,0,0-.3-.18,1.43,1.43,0,0,1-.3-.19q-1-.6-5.85-.6-5.4,0-5.4.67V70.08a28.91,28.91,0,0,0,.53,6.15c.15.6,1,1.08,2.47,1.43a16.35,16.35,0,0,0,3.38.52c.2,0,.3.48.3,1.43a4.55,4.55,0,0,1-.15,1.35q-9-.45-11.48-.45L230,81a1.9,1.9,0,0,1-.3-1.28q0-1.5.3-1.5a12,12,0,0,0,2.82-.52c1.27-.35,2-.73,2.13-1.13a31.19,31.19,0,0,0,.45-6.6V41.58a26.19,26.19,0,0,0-.45-5.85c-.15-.4-.88-.85-2.21-1.35a9.47,9.47,0,0,0-2.81-.75q-.3,0-.3-1.35c0-.8.07-1.27.22-1.42Q236.55,31.24,240.83,31.23Z" style="fill:#fcefb2"/><path d="M282.31,31.23q3.3,0,11.62-.19t12.6-.18q.08.75,2.18,11.1a2.66,2.66,0,0,1-1.73.37c-.55,0-.9-.17-1.05-.52a12.64,12.64,0,0,0-4.5-4.88,10.9,10.9,0,0,0-6-2h-2.85c-3.15,0-4.77.32-4.87,1a31.93,31.93,0,0,0-.38,5.85V53.28c0,.3,1.08.45,3.23.45h4q4.65,0,5.1-.3c.25-.2.45-.92.6-2.17a15.31,15.31,0,0,1,.45-2.18c.05-.35.43-.52,1.13-.52a2.48,2.48,0,0,1,1.65.37V63.11a2.57,2.57,0,0,1-1.58.3q-1,0-1.2-.6c-.2-.7-.37-1.3-.52-1.8s-.28-.88-.38-1.13a3.82,3.82,0,0,0-.34-.67,2.44,2.44,0,0,0-.26-.38,1.15,1.15,0,0,0-.3-.18,1.43,1.43,0,0,1-.3-.19q-1-.6-5.85-.6-5.4,0-5.4.67V70.08a17.45,17.45,0,0,0,.6,5.33q.38,1.2,5.1,1.2h2a17.93,17.93,0,0,0,8.4-2,10.94,10.94,0,0,0,2.89-2.55,14.42,14.42,0,0,0,2.51-4.2q.08-.45,1.05-.45a3.56,3.56,0,0,1,2.25.45Q308.4,78.26,308,80.81q-3.82,0-12.15-.15t-13.5-.15L271.43,81a1.9,1.9,0,0,1-.3-1.28q0-1.5.3-1.5a11.85,11.85,0,0,0,2.81-.52c1.28-.35,2-.73,2.14-1.13a31.19,31.19,0,0,0,.45-6.6V41.58a26.19,26.19,0,0,0-.45-5.85c-.15-.4-.89-.85-2.21-1.35a9.54,9.54,0,0,0-2.81-.75c-.21,0-.3-.45-.3-1.35s.07-1.27.22-1.42Q277.28,31.24,282.31,31.23Z" style="fill:#fcefb2"/><path d="M316.28,44q0-5.62,5-9.6a17.24,17.24,0,0,1,11-4,24.57,24.57,0,0,1,3.26.22c1.13.15,2.07.3,2.85.45s1.85.39,3.23.71,2.46.57,3.26.72A112.84,112.84,0,0,1,345.68,45a1.11,1.11,0,0,1-1.12.75c-1.45,0-2.23-.18-2.33-.53A14.79,14.79,0,0,0,339,38a8.2,8.2,0,0,0-6.68-3.41A6.22,6.22,0,0,0,328,36.18q-1.75,1.57-1.76,5a6.19,6.19,0,0,0,.75,2.92,10.26,10.26,0,0,0,2.51,2.93,32.22,32.22,0,0,0,2.89,2.25q1.13.75,3.67,2.4c.45.3.8.52,1.05.67l2.48,1.5c1.25.75,2.14,1.32,2.66,1.69a26.15,26.15,0,0,1,2.18,1.84,9.35,9.35,0,0,1,2,2.51,16,16,0,0,1,1.16,3.23,17.07,17.07,0,0,1,.53,4.38,12.18,12.18,0,0,1-5,9.94,17.77,17.77,0,0,1-11.4,3.94,64,64,0,0,1-14.25-2,64.69,64.69,0,0,1-1.17-6.56,52.15,52.15,0,0,1-.56-5.89q.23-.75,1.35-.75,2.32,0,2.4.45a14.2,14.2,0,0,0,3.75,6.94,9.3,9.3,0,0,0,7,3.48q7.43,0,7.42-8.17a5.16,5.16,0,0,0-.67-2.51A9.23,9.23,0,0,0,335,64a29.68,29.68,0,0,0-2.4-2c-.7-.5-1.68-1.15-3-2s-2.09-1.33-2.44-1.58-.62-.4-1.12-.75q-2.48-1.65-3.75-2.62a29.3,29.3,0,0,1-3-2.7,10.22,10.22,0,0,1-2.4-3.79A14.44,14.44,0,0,1,316.28,44Z" style="fill:#fcefb2"/><path d="M366.8,31.16q5.06.22,8.21.22t8.25-.22q5.1-.22,8.25-.23a22.81,22.81,0,0,0,5.18-.82l1.42,12.3a3.18,3.18,0,0,1-2.17.52c-.45,0-.7-.12-.75-.37q-1.87-7.43-8-7.43t-6.37,1.35a26.68,26.68,0,0,0-.6,6.68V70.23a25.1,25.1,0,0,0,.6,6.08c.1.35.78.75,2.06,1.2a9.74,9.74,0,0,0,2.59.67c.2,0,.3.48.3,1.43a4.55,4.55,0,0,1-.15,1.35q-.52,0-4.5-.3t-5.93-.3c-1.35,0-3.33.09-5.92.26l-5,.34a1.74,1.74,0,0,1-.29-1.2c0-1.05.07-1.58.22-1.58a10.72,10.72,0,0,0,2.78-.63c1.29-.43,2-.84,2.17-1.24a24.28,24.28,0,0,0,.53-5.78V43.38q0-5.85-.6-6.9a2.51,2.51,0,0,0-.42-.64,4.91,4.91,0,0,0-1.61-.45,25,25,0,0,0-4.13-.26,7.37,7.37,0,0,0-5,1.69,11,11,0,0,0-3,5.66c-.05.25-.3.38-.75.38a3.2,3.2,0,0,1-2.18-.53l1.43-12.22a22.74,22.74,0,0,0,5.17.82C360.69,30.93,363.42,31,366.8,31.16Z" style="fill:#fcefb2"/><path d="M61.65,52.08,44,20.73A3.34,3.34,0,0,0,41.13,19L31,19l-7.42,0a3.33,3.33,0,0,0-2.9,5L37.2,52.72a3.35,3.35,0,0,1,0,3.34l-2.11,3.62L20.43,84.82a3.33,3.33,0,0,0,2.88,5H31l10.2,0a3.34,3.34,0,0,0,2.89-1.66L51,76.47h0l6.3-10.77,4.37-7.49A6.15,6.15,0,0,0,61.65,52.08Z" style="fill:#edc04e"/><polygon points="17.88 19.11 31.27 19.43 57.01 65.41 50.79 76.2 17.88 19.11" style="fill:#3577bc"/><polygon points="17.68 89.49 38.12 54.82 44.87 66.44 31.07 90.11 17.68 89.49" style="fill:#9ab964"/><polygon points="31.07 90.11 44.87 66.03 50.79 76.2 43 89.7 31.07 90.11" style="fill:#fcefb2"/><path d="M31.27,19.43h9.67A3.54,3.54,0,0,1,44,21.21l17,29.95a8,8,0,0,1-.19,8.24l-3.87,6Z" style="fill:#e9764f"/><polygon points="35.59 58.92 38.16 54.4 50.98 76.47 35.59 58.92" style="fill:#6f2b5a;opacity:0.30000000000000004;mix-blend-mode:multiply"/><path d="M31.93,19.56l9.76,0a1.83,1.83,0,0,1,1.58.93L61.18,52.35a5.64,5.64,0,0,1,0,5.58L57.28,64.6l-25.35-45M31,19,57.27,65.7l4.37-7.49a6.15,6.15,0,0,0,0-6.13L43.57,19.93A1.74,1.74,0,0,0,42.05,19L31,19Z" style="fill:#fcefb2"/><path d="M18.74,19.52l11.93,0,26,46.14L51,75.38l-5.65-9.72L38.64,54.12l-19.9-34.6M17.79,19,38.16,54.4l6.7,11.54L51,76.47l6.3-10.77L31,19l-13.2,0Z" style="fill:#fcefb2"/><path d="M44.86,67l5.48,9.44L42.85,89.31,32,89.28,43.87,68.74l1-1.71m0-1.09L43.4,68.46,31,89.83l12.12,0L51,76.47,44.86,65.94Z" style="fill:#fcefb2"/><path d="M15.94,24.63,34.61,57.08l3.55-2.68L17.79,19l-.82.62A3.9,3.9,0,0,0,15.94,24.63Z" style="fill:#fcefb2"/><path d="M31,89.83H17.52L35.08,59.68l3.08-5.28-3.55,2.68-3.09,5.29L15.45,90a1.7,1.7,0,0,0,1.47,2.55H27.49l10.33,0A5.23,5.23,0,0,0,41,91.47l2.13-1.61Z" style="fill:#fcefb2"/><path d="M38.16,55.49l6.07,10.45-1.31,2.25L30.72,89.28H18.47L35.55,60l2.61-4.47m0-1.09-3.08,5.28L17.52,89.82H31L43.4,68.46l1.46-2.52L38.16,54.4Z" style="fill:#fcefb2"/><path d="M61.65,52.08,43.58,19.94A1.77,1.77,0,0,0,42,19L31,19l-13.2,0L38.16,54.4l-3.08,5.28L17.52,89.82H31l12.12,0L51,76.47h0l6.3-10.77,4.37-7.49A6.15,6.15,0,0,0,61.65,52.08ZM61.17,58,56.8,65.44,50.51,76.2,43.22,88.68a1.28,1.28,0,0,1-1.1.63l-11.07,0H19.82a.76.76,0,0,1-.66-1.15L35.56,60l3.08-5.28.16-.27-.16-.28L19.21,20.39a.51.51,0,0,1,.4-.8l11.39,0,10.61,0a2,2,0,0,1,1.71,1L61.18,52.38A5.64,5.64,0,0,1,61.17,58Z" style="fill:#fcefb2"/><path d="M253.53,111.69c-.18,0-.43-.19-.76-.57l-10-12.42v9.4a5.08,5.08,0,0,0,.2,1.75,1.17,1.17,0,0,0,.59.47,3.69,3.69,0,0,0,.9.31,3.53,3.53,0,0,0,.72.1s.05.07.07.21a3,3,0,0,1,0,.43.59.59,0,0,1,0,.29,16.1,16.1,0,0,1-2-.1,12.8,12.8,0,0,0-1.32-.09c-.39,0-.7,0-.93,0l-.77.07c-.29,0-.74.07-1.34.1,0,0-.08-.19-.08-.44s0-.47.08-.47a3.34,3.34,0,0,0,1.19-.23,1.61,1.61,0,0,0,.89-.7,3.93,3.93,0,0,0,.25-1.79V98.38a2.91,2.91,0,0,0-.37-1.74.77.77,0,0,0-.45-.21q-.39-.09-.81-.15a5.21,5.21,0,0,0-.68-.06s-.06-.07-.08-.2a1.48,1.48,0,0,1,0-.43.57.57,0,0,1,.06-.28l1.57.1c.38,0,.72.06,1,.07l.78,0c.27,0,.61,0,1-.05s.86-.08,1.38-.15A14,14,0,0,0,246,97.47c.58.79,1.23,1.62,2,2.49l2.26,2.72c.78.93,1.52,1.86,2.22,2.8a1.86,1.86,0,0,0,0-.35c0-.16,0-.38,0-.66V98.7a3,3,0,0,0-.32-1.77,1.19,1.19,0,0,0-.53-.35,4.2,4.2,0,0,0-.78-.26,2.6,2.6,0,0,0-.6-.1s-.07-.07-.09-.2a1.91,1.91,0,0,1,0-.43.5.5,0,0,1,0-.28c.75.07,1.4.12,1.94.15s1,.05,1.3.05.63,0,1.06-.05l1.21-.1.78,0a1,1,0,0,1,.09.44c0,.31,0,.47-.12.47a2.59,2.59,0,0,0-2,.81,3.11,3.11,0,0,0-.34,1.79v9.33c0,.3,0,.73,0,1.3s0,1.29.07,2.14A1.16,1.16,0,0,1,253.53,111.69Z" style="fill:#fcefb2"/><path d="M256.09,111.66a.5.5,0,0,1-.1-.37c0-.34,0-.51.05-.51a2.24,2.24,0,0,0,.59-.12,7.28,7.28,0,0,0,.77-.31,1,1,0,0,0,.48-.36,7,7,0,0,0,.42-.72,7.19,7.19,0,0,0,.32-.7l.12-.3,5.43-12.47a.93.93,0,0,1,.9-.64.68.68,0,0,1,.59.32l5,12.45c.14.38.29.73.43,1.07s.26.65.38.94a.84.84,0,0,0,.44.43,3.07,3.07,0,0,0,.75.29,3.14,3.14,0,0,0,.62.09c.07,0,.1.14.1.42a1.24,1.24,0,0,1-.05.49l-1.49-.1-1.23-.08a4.8,4.8,0,0,0-.84,0l-3.7.19c-.07-.06-.1-.23-.1-.51s0-.4.1-.4a2.82,2.82,0,0,0,1.1-.23c.38-.15.56-.36.56-.63,0,0,0-.16-.13-.44s-.25-.68-.48-1.2l-.74-1.79a.24.24,0,0,0-.17-.1c-.16,0-.44,0-.83,0h-3c-.42,0-.77,0-1,0a.21.21,0,0,0-.18.12l-.81,1.87a6.8,6.8,0,0,0-.47,1.42.63.63,0,0,0,.42.69,2.53,2.53,0,0,0,.78.26l.58,0s.07.15.07.4a2.3,2.3,0,0,1-.05.51l-1.61-.12-.75-.06a3,3,0,0,0-.52,0l-.9.06Zm7.81-6.8h.92l.82,0,.07-.12-1.77-4.39L262,104.69c0,.07,0,.1.05.1C262.57,104.84,263.17,104.86,263.9,104.86Z" style="fill:#fcefb2"/><path d="M288.81,111.69c-.18,0-.43-.19-.76-.57l-10-12.42v9.4a5.08,5.08,0,0,0,.2,1.75,1.17,1.17,0,0,0,.59.47,3.69,3.69,0,0,0,.9.31,3.53,3.53,0,0,0,.72.1s0,.07.07.21a3,3,0,0,1,0,.43.59.59,0,0,1-.05.29,16.1,16.1,0,0,1-2-.1,12.8,12.8,0,0,0-1.32-.09c-.39,0-.7,0-.93,0l-.77.07c-.29,0-.74.07-1.34.1-.05,0-.08-.19-.08-.44s0-.47.08-.47a3.34,3.34,0,0,0,1.19-.23,1.61,1.61,0,0,0,.89-.7,3.93,3.93,0,0,0,.25-1.79V98.38a2.91,2.91,0,0,0-.37-1.74.77.77,0,0,0-.45-.21q-.39-.09-.81-.15a5.21,5.21,0,0,0-.68-.06s-.06-.07-.08-.2a1.48,1.48,0,0,1,0-.43.57.57,0,0,1,.06-.28l1.57.1c.38,0,.72.06,1,.07l.78,0c.27,0,.61,0,1-.05s.86-.08,1.38-.15a14,14,0,0,0,1.37,2.16c.58.79,1.23,1.62,2,2.49l2.26,2.72c.78.93,1.52,1.86,2.22,2.8a1.86,1.86,0,0,0,0-.35c0-.16,0-.38,0-.66V98.7a3,3,0,0,0-.32-1.77,1.19,1.19,0,0,0-.53-.35,4.2,4.2,0,0,0-.78-.26,2.6,2.6,0,0,0-.6-.1s-.07-.07-.09-.2a1.91,1.91,0,0,1,0-.43.5.5,0,0,1,.05-.28c.75.07,1.4.12,1.94.15s1,.05,1.3.05.63,0,1.06-.05l1.21-.1.78,0a1,1,0,0,1,.09.44c0,.31,0,.47-.12.47a2.59,2.59,0,0,0-2,.81,3.11,3.11,0,0,0-.34,1.79v9.33c0,.3,0,.73,0,1.3s0,1.29.07,2.14A1.16,1.16,0,0,1,288.81,111.69Z" style="fill:#fcefb2"/><path d="M297.09,111.66c-.07-.06-.1-.19-.1-.39s0-.52.07-.52a2.58,2.58,0,0,0,.57-.09,4.68,4.68,0,0,0,.69-.25.8.8,0,0,0,.37-.27,4.29,4.29,0,0,0,.13-.81c0-.31,0-.67,0-1.08V99.36a6.92,6.92,0,0,0-.2-2.26l-.12-.22a1.48,1.48,0,0,0-.64-.16,11.5,11.5,0,0,0-1.25-.06,2.49,2.49,0,0,0-1.65.55,3.69,3.69,0,0,0-1,1.86c0,.08-.11.12-.25.12a1.09,1.09,0,0,1-.71-.17l.47-4,1,.19a4.15,4.15,0,0,0,.73.08c.84,0,1.73,0,2.69.07s1.86.07,2.69.07,1.73,0,2.7-.07,1.87-.07,2.7-.07a4.36,4.36,0,0,0,.74-.08l1-.19.46,4a1,1,0,0,1-.71.17q-.19,0-.24-.12c-.42-1.62-1.29-2.43-2.63-2.43s-2,.15-2.09.44a5.26,5.26,0,0,0-.15.89c0,.36,0,.79,0,1.3v8.86c0,.41,0,.78,0,1.11a6.69,6.69,0,0,0,.15.88c0,.07.15.15.36.25a5.05,5.05,0,0,0,.66.25,1.8,1.8,0,0,0,.5.11c.07,0,.1.16.1.47a2,2,0,0,1-.05.44l-.46,0-1-.08-1.13-.07c-.33,0-.6,0-.81,0s-.7,0-1.2,0l-1.44.08Z" style="fill:#fcefb2"/><path d="M309.56,111.66a.62.62,0,0,1-.1-.41c0-.33,0-.5.1-.5a3.06,3.06,0,0,0,.57-.07,3.59,3.59,0,0,0,.68-.21c.22-.09.34-.17.37-.26a10,10,0,0,0,.15-2.16V98.77a8.22,8.22,0,0,0-.15-1.91c0-.1-.16-.2-.38-.31a4.84,4.84,0,0,0-.7-.27,2.24,2.24,0,0,0-.56-.11c-.07,0-.1-.15-.1-.44a.86.86,0,0,1,.07-.47l1.88.09,1.73,0c.72,0,2,0,3.81-.07l2.4,0h1.72c0,.08.08.43.2,1s.28,1.48.51,2.61a.87.87,0,0,1-.56.12c-.18,0-.3-.06-.34-.17a3.31,3.31,0,0,0-.88-1.14,5.09,5.09,0,0,0-1.25-.82,3.23,3.23,0,0,0-1.31-.3h-.93c-1.05,0-1.58.1-1.6.32s-.06.45-.09.77,0,.7,0,1.14v3.78q0,.15,1.05.15h1.3a6,6,0,0,0,1.67-.1,1.38,1.38,0,0,0,.2-.71,3.55,3.55,0,0,1,.15-.71c0-.12.14-.17.36-.17a.87.87,0,0,1,.55.12v4.64a.9.9,0,0,1-.52.1c-.21,0-.34-.07-.39-.2-.2-.64-.33-1-.4-1.18s-.11-.16-.13-.16-.08,0-.16-.08a5.28,5.28,0,0,0-1.92-.2c-1.17,0-1.76.07-1.76.22v3.78a6,6,0,0,0,.19,1.75c.07.26.62.39,1.67.39h.64a5.81,5.81,0,0,0,2.75-.64,3.87,3.87,0,0,0,1-.83,4.8,4.8,0,0,0,.82-1.38c0-.1.15-.15.34-.15a1.15,1.15,0,0,1,.74.15,29.25,29.25,0,0,0-1.33,4.22h-1.61l-2.36,0q-1.35,0-2.46-.06c-.74,0-1.39,0-2,0Z" style="fill:#fcefb2"/><path d="M329.33,111.81a15.12,15.12,0,0,1-2.14-.16c-.77-.11-1.61-.27-2.53-.48-.08-.36-.17-.81-.26-1.35s-.16-1.07-.22-1.58-.08-.9-.08-1.14.19-.25.44-.25c.5,0,.77.05.78.15a4.39,4.39,0,0,0,.67,1.53,4.88,4.88,0,0,0,1.26,1.34,2.67,2.67,0,0,0,1.58.54c1.63,0,2.44-.89,2.44-2.68a1.88,1.88,0,0,0-.56-1.3,6.89,6.89,0,0,0-1.27-1.05c-.49-.31-.9-.58-1.24-.81l-.74-.49c-.56-.38-1.08-.77-1.57-1.17a5,5,0,0,1-1.19-1.4,3.8,3.8,0,0,1-.46-2A3.69,3.69,0,0,1,325,97.3a5.54,5.54,0,0,1,2-1.6,5.65,5.65,0,0,1,2.5-.58,7.9,7.9,0,0,1,1.07.07l.95.15c.49.09.91.19,1.26.28a7.81,7.81,0,0,0,.85.18c.08.8.15,1.54.19,2.21s.08,1.29.08,1.87a.37.37,0,0,1-.37.24c-.49,0-.75-.05-.76-.17a4.56,4.56,0,0,0-.54-1.62A4.34,4.34,0,0,0,331.07,97a2.52,2.52,0,0,0-1.57-.53,2,2,0,0,0-1.41.52,2.07,2.07,0,0,0-.58,1.64,2.27,2.27,0,0,0,.9,1.77,20.94,20.94,0,0,0,2.32,1.67l1.25.78a12.14,12.14,0,0,1,1.3.92,4,4,0,0,1,1,1.3,5.06,5.06,0,0,1,.39,2.18,3.86,3.86,0,0,1-.75,2.33,5.07,5.07,0,0,1-2,1.62A6,6,0,0,1,329.33,111.81Z" style="fill:#fcefb2"/><path d="M341.33,111.56a1.42,1.42,0,0,1-.29-.81c.78-.86,1.53-1.77,2.24-2.72a33.33,33.33,0,0,0,1.91-2.81,18.25,18.25,0,0,0,1.31-2.62,5.92,5.92,0,0,0,.48-2.11,3.1,3.1,0,0,0-.57-1.85,1.77,1.77,0,0,0-1.52-.8,2.67,2.67,0,0,0-1.34.34,3.44,3.44,0,0,0-1.06,1.06l-.25.34a.82.82,0,0,1-.45-.18.51.51,0,0,1-.26-.43,4.49,4.49,0,0,1,.53-.9,10.9,10.9,0,0,1,.87-1,4.22,4.22,0,0,1,1.4-.9,4.75,4.75,0,0,1,1.84-.35,4.45,4.45,0,0,1,2.18.52,3.79,3.79,0,0,1,1.51,1.46,4.37,4.37,0,0,1,.56,2.25,5.09,5.09,0,0,1-.58,2.51,22.63,22.63,0,0,1-1.29,2,11.4,11.4,0,0,1-1.35,1.52l-.79.79c-.19.2-.38.37-.55.53l-.61.56-1,.9a.13.13,0,0,0,.1.22h4.19a1.82,1.82,0,0,0,1.1-.29,1.89,1.89,0,0,0,.57-.8,10,10,0,0,0,.35-1.09c0-.12.15-.18.41-.18a.87.87,0,0,1,.57.15c-.16.7-.32,1.42-.48,2.14s-.31,1.46-.48,2.23c0,.23-.13.34-.29.34Z" style="fill:#fcefb2"/><path d="M358.52,111.64a4.19,4.19,0,0,1-2.16-.6,6.13,6.13,0,0,1-1.83-1.67,8.73,8.73,0,0,1-1.27-2.47,9.82,9.82,0,0,1,0-5.94,8.73,8.73,0,0,1,1.27-2.47,6.13,6.13,0,0,1,1.83-1.67,4.19,4.19,0,0,1,2.16-.6,4.07,4.07,0,0,1,2.11.6,6.13,6.13,0,0,1,1.79,1.67,8.61,8.61,0,0,1,1.24,2.46,9.85,9.85,0,0,1,0,6,8.67,8.67,0,0,1-1.24,2.47,6.13,6.13,0,0,1-1.79,1.67A4.07,4.07,0,0,1,358.52,111.64Zm0-1.28q1.08,0,1.62-1.77a17.52,17.52,0,0,0,.52-4.81,15.53,15.53,0,0,0-.57-4.64c-.36-1.13-.88-1.69-1.57-1.69s-1.27.59-1.69,1.76a14.53,14.53,0,0,0-.62,4.69,13,13,0,0,0,.69,4.65C357.36,109.76,357.9,110.36,358.54,110.36Z" style="fill:#fcefb2"/><path d="M365.64,111.56a1.42,1.42,0,0,1-.3-.81,34.92,34.92,0,0,0,2.25-2.72,33.14,33.14,0,0,0,1.9-2.81,17.39,17.39,0,0,0,1.32-2.62,5.88,5.88,0,0,0,.47-2.11,3.09,3.09,0,0,0-.56-1.85,1.78,1.78,0,0,0-1.52-.8,2.64,2.64,0,0,0-1.34.34,3.47,3.47,0,0,0-1.07,1.06l-.24.34a.84.84,0,0,1-.46-.18.53.53,0,0,1-.26-.43,5,5,0,0,1,.53-.9,10.9,10.9,0,0,1,.87-1,4.44,4.44,0,0,1,1.4-.9,4.79,4.79,0,0,1,1.84-.35,4.49,4.49,0,0,1,2.19.52,3.79,3.79,0,0,1,1.51,1.46,4.36,4.36,0,0,1,.55,2.25,5,5,0,0,1-.58,2.51,20.45,20.45,0,0,1-1.28,2,11.4,11.4,0,0,1-1.35,1.52l-.79.79-.55.53-.62.56-1,.9a.12.12,0,0,0,0,.13.12.12,0,0,0,.12.09h4.2a1.79,1.79,0,0,0,1.09-.29,1.83,1.83,0,0,0,.58-.8,10,10,0,0,0,.34-1.09q0-.18.42-.18a.88.88,0,0,1,.57.15c-.17.7-.33,1.42-.48,2.14s-.32,1.46-.48,2.23c0,.23-.13.34-.3.34Z" style="fill:#fcefb2"/><path d="M380.2,111.66a5.19,5.19,0,0,1-2.88-.83,2.45,2.45,0,0,1-.14-.71,2.13,2.13,0,0,1,.23-1,.82.82,0,0,1,.8-.46,1.81,1.81,0,0,1,1.37.89,2,2,0,0,0,1.72.86,2,2,0,0,0,1.77-.9,4.46,4.46,0,0,0,.61-2.54,3.76,3.76,0,0,0-.68-2.32,2.25,2.25,0,0,0-1.89-.9c-.19,0-.39,0-.62,0l-.74.09a1.22,1.22,0,0,1-.17-.74,1,1,0,0,1,.08-.37,3.64,3.64,0,0,0,2.19-1.09,3.11,3.11,0,0,0,.8-2.2A2.05,2.05,0,0,0,382.2,98a1.44,1.44,0,0,0-1.05-.47,3,3,0,0,0-2.3,1,.52.52,0,0,1-.37-.24.78.78,0,0,1-.2-.42,5.29,5.29,0,0,1,1.87-1.51,5.63,5.63,0,0,1,2.53-.58,3,3,0,0,1,1.33.32,2.67,2.67,0,0,1,1.08.95,2.64,2.64,0,0,1,.43,1.56,3.78,3.78,0,0,1-.31,1.51,5.33,5.33,0,0,1-.8,1.28,4,4,0,0,1-1,.86,2.52,2.52,0,0,1,1.09.31,5.25,5.25,0,0,1,1.17.85,4.79,4.79,0,0,1,.93,1.27,3.51,3.51,0,0,1,.37,1.6,4.37,4.37,0,0,1-.57,2.2,5.16,5.16,0,0,1-1.54,1.69,7.71,7.71,0,0,1-2.19,1.08A8.06,8.06,0,0,1,380.2,111.66Z" style="fill:#fcefb2"/></g></g></svg>